<svg xmlns="http://www.w3.org/2000/svg" xml:space="preserve" width="2048" height="2048" style="shape-rendering:geometricPrecision;text-rendering:geometricPrecision;image-rendering:optimizeQuality;fill-rule:evenodd;clip-rule:evenodd">
  <defs>
    <style>
      .fil5{fill:none}
      .fil0{fill:#f97316} /* Primary Orange */
      .fil9{fill:#6b7280} /* Gray 500 */
      .fil1{fill:#f3f4f6} /* Gray 100 */
      .fil4{fill:#d1d5db;fill-rule:nonzero} /* Gray 300 */
    </style>
  </defs>
  <g id="Layer_x0020_1">
    <g id="_495629864">
      <circle id="_495634616" class="fil0" transform="rotate(90 -57.545 497.668) scale(1.15723)" r="59.985"/>
      <circle id="_495629552" class="fil0" transform="rotate(90 135.267 690.48) scale(1.15723)" r="59.985"/>
      <circle id="_495624320" class="fil0" transform="rotate(90 333.784 888.996) scale(1.15723)" r="59.985"/>
      <circle id="_495627176" class="fil0" transform="rotate(90 528.324 1083.536) scale(1.15723)" r="59.985"/>
      <path id="_495648248" class="fil1" d="M1788.1 656.658H259.905v770.252h235.452v235.45H1788.1z"/>
      <path id="_495645272" style="fill:#e5e7eb;fill-rule:nonzero" d="m259.905 1426.91 117.728 117.73 117.724 117.72v-235.45z"/> <!-- Gray 200 -->
      <path id="_495650168" d="M1563.44 547.662c0-29.792 24.14-53.959 53.944-53.959 29.805 0 53.945 24.167 53.945 53.959 0 29.79-24.14 53.956-53.944 53.956-29.804 0-53.945-24.166-53.945-53.956zm-395.657 0c0-29.792 24.137-53.959 53.956-53.959 29.792 0 53.959 24.167 53.959 53.959 0 29.79-24.167 53.956-53.959 53.956-29.819 0-53.956-24.166-53.956-53.956zm-395.645 0c0-29.792 24.155-53.959 53.945-53.959 29.804 0 53.97 24.167 53.97 53.959 0 29.79-24.167 53.956-53.97 53.956-29.79 0-53.945-24.166-53.945-53.956zm-395.641 0c0-29.792 24.136-53.959 53.955-53.959 29.804 0 53.945 24.167 53.945 53.959 0 29.79-24.14 53.956-53.945 53.956-29.82 0-53.955-24.166-53.955-53.956zm1411.44 33.522c0-78.707-63.795-142.502-142.507-142.502H402.4c-78.697 0-142.492 63.795-142.492 142.502v75.474h1528.03v-75.474z" style="fill:#9ca3af;fill-rule:nonzero"/> <!-- Gray 400 -->
      <path id="_495637496" class="fil1" d="M1615.24 571.428c-20.022 0-36.243-16.22-36.243-36.258V421.894c0-20.025 16.221-36.254 36.243-36.254 20.017 0 36.242 16.229 36.242 36.254V535.17c0 20.038-16.225 36.258-36.242 36.258z"/>
      <path id="_495631064" class="fil4" d="M1579 535.171V421.895c0-20.026 16.221-36.254 36.243-36.254v185.788c-20.022 0-36.243-16.22-36.243-36.257z"/>
      <path id="_495641168" class="fil1" d="M1220.48 571.428c-20.022 0-36.242-16.22-36.242-36.258V421.894c0-20.025 16.22-36.254 36.242-36.254 20.033 0 36.258 16.229 36.258 36.254V535.17c0 20.038-16.225 36.258-36.258 36.258z"/>
      <path id="_495625880" class="fil4" d="M1184.23 535.171V421.895c0-20.026 16.22-36.254 36.242-36.254v185.788c-20.022 0-36.242-16.22-36.242-36.257z"/>
      <path id="_495650384" class="fil1" d="M821.181 571.428c-20.033 0-36.258-16.22-36.258-36.258V421.894c0-20.025 16.225-36.254 36.258-36.254 20.022 0 36.254 16.229 36.254 36.254V535.17c0 20.038-16.232 36.258-36.254 36.258z"/>
      <path id="_495633128" class="fil4" d="M784.923 535.171V421.895c0-20.026 16.225-36.254 36.258-36.254v185.788c-20.033 0-36.258-16.22-36.258-36.257z"/>
      <path id="_495636704" class="fil1" d="M429.643 571.428c-20.022 0-36.258-16.22-36.258-36.258V421.894c0-20.025 16.236-36.254 36.258-36.254 20.022 0 36.254 16.229 36.254 36.254V535.17c0 20.038-16.232 36.258-36.254 36.258z"/>
      <path id="_495638552" class="fil4" d="M393.385 535.171V421.895c0-20.026 16.235-36.254 36.258-36.254v185.788c-20.023 0-36.258-16.22-36.258-36.257z"/>
    </g>
    <path class="fil5" d="M255.999 255.999h1536v1536h-1536z"/>
    <g id="_495623864">
      <path id="_495641312" style="fill:#374151;fill-rule:nonzero" d="m1031.38 867.827 351.73 160.393 40.9 18.65-41.13 18.18-355.46 157.11-8.24 3.64-8.2-3.72-346.615-157.11-40.378-18.3 40.3-18.45 350.333-160.393 8.36-3.828z"/> <!-- Gray 700 -->
      <path id="_495648608" d="m1020.71 1221.96.353-.157 172.963-76.801 28.303-12.568-.007 30.985-.024 101.254-.002 9.012-6.716 6.004c-63.984 43.718-129.36 65.237-194.784 65.184l-.086.001V1221.96z" style="fill:#6b7280;fill-rule:nonzero"/> <!-- Gray 500 -->
      <path id="_495641432" d="m1019.97 1222.29.736-.327v122.914c-65.783-.072-131.616-21.953-196.135-65.027l-6.806-6.002.009-9.173.096-100.873.031-31.017 28.266 12.521 173.803 76.984z" style="fill:#4b5563;fill-rule:nonzero"/> <!-- Gray 600 -->
      <path id="_495639680" class="fil5" style="stroke:#f97316;stroke-width:31.9996" d="m1020.71 1014.8-296.243 81.56v40.12"/> <!-- Primary Orange -->
      <path id="_495639368" class="fil9" d="m722.008 1152.59 31.473 121.48-59.514-.26z"/>
      <circle id="_495625328" class="fil9" cx="722.422" cy="1152.2" r="19.762"/>
      <ellipse id="_495637232" cx="1018.02" cy="1020.35" rx="25.045" ry="15.868" style="fill:#111827"/> <!-- Gray 900 -->
    </g>
    <path class="fil5" d="M0 0h2048v2048H0z"/>
  </g>
</svg>